# xmcd
# 
# Track frame offsets:
#     150
#     24853
#     44505
#     71974
#     93406
#     123102
#     140759
#     165066
#     195084
#     221866
#     248131
#     268629
# 
# Disc length: 3897
# 
# Revision: 7
# Processed by: cddbd v1.5.2PL0 Copyright (c) Steve Scherf et al.
# Submitted via: fre:ac v1.0.31
# 
DISCID=a30f370c
DTITLE=Joe Bonamassa - Redemption (Limited Edition Deluxe Version - DigiBook)
DYEAR=2018
DGENRE=Blues Rock
TTITLE0=Evil Mama
TTITLE1=King Bee Shakedown
TTITLE2=Molly O'
TTITLE3=Deep In The Blues Again
TTITLE4=Self-Inflicted Wounds
TTITLE5=Pick Up The Pieces
TTITLE6=The Ghost Of Macon Jones
TTITLE7=Just 'cos You Can Don't Mean You Should
TTITLE8=Redemption
TTITLE9=I've Got Some Mind Over What Matters
TTITLE10=Stronger Now In Broken Places
TTITLE11=Love Is A Gamble
EXTD=Release-Date: 21.09.2018\n\nMARO\n
EXTT0=
EXTT1=
EXTT2=
EXTT3=
EXTT4=
EXTT5=
EXTT6=
EXTT7=
EXTT8=
EXTT9=
EXTT10=
EXTT11=
PLAYORDER=
